<?xml version="1.0" encoding="UTF-8" standalone="no"?>
<svg
   xmlns:dc="http://purl.org/dc/elements/1.1/"
   xmlns:cc="http://creativecommons.org/ns#"
   xmlns:rdf="http://www.w3.org/1999/02/22-rdf-syntax-ns#"
   xmlns:svg="http://www.w3.org/2000/svg"
   xmlns="http://www.w3.org/2000/svg"
   xmlns:sodipodi="http://sodipodi.sourceforge.net/DTD/sodipodi-0.dtd"
   xmlns:inkscape="http://www.inkscape.org/namespaces/inkscape"
   version="1.1"
   id="Layer_1"
   x="0px"
   y="0px"
   width="16px"
   height="16px"
   viewBox="0 0 16 16"
   enable-background="new 0 0 16 16"
   xml:space="preserve"
   sodipodi:docname="critical.svg"
   inkscape:version="1.0.2 (e86c870879, 2021-01-15, custom)"><metadata
   id="metadata13"><rdf:RDF><cc:Work
       rdf:about=""><dc:format>image/svg+xml</dc:format><dc:type
         rdf:resource="http://purl.org/dc/dcmitype/StillImage" /><dc:title></dc:title></cc:Work></rdf:RDF></metadata><defs
   id="defs11" /><sodipodi:namedview
   pagecolor="#ffffff"
   bordercolor="#666666"
   borderopacity="1"
   objecttolerance="10"
   gridtolerance="10"
   guidetolerance="10"
   inkscape:pageopacity="0"
   inkscape:pageshadow="2"
   inkscape:window-width="1370"
   inkscape:window-height="832"
   id="namedview9"
   showgrid="false"
   inkscape:zoom="20.211925"
   inkscape:cx="7.4357544"
   inkscape:cy="6.3923945"
   inkscape:window-x="2030"
   inkscape:window-y="45"
   inkscape:window-maximized="0"
   inkscape:current-layer="Layer_1" />
<rect
   x="7"
   y="12"
   fill="#FFFFFF"
   width="1"
   height="1"
   id="rect2" />
<path
   fill="#ba131a"
   d="m 8,0 c 0.7338667,0 1.4432,0.09493333 2.1248,0.2848 0.6816,0.18986667 1.319467,0.45973333 1.9104,0.8085333 0.590933,0.3488 1.130667,0.7669334 1.617067,1.2544 C 14.138667,2.8352 14.5568,3.3738667 14.906667,3.9648 15.256533,4.5557333 15.525333,5.1925333 15.7152,5.8752 15.905067,6.5578667 16,7.2661333 16,8 c 0,0.7338667 -0.09493,1.4432 -0.2848,2.1248 -0.189867,0.6816 -0.459733,1.319467 -0.808533,1.9104 -0.3488,0.590933 -0.766934,1.130667 -1.2544,1.617067 -0.487467,0.4864 -1.026134,0.904533 -1.617067,1.2544 -0.590933,0.349866 -1.227733,0.618666 -1.9104,0.808533 C 9.4421333,15.905067 8.7338667,16 8,16 7.2661333,16 6.5568,15.905067 5.8752,15.7152 5.1936,15.525333 4.5557333,15.255467 3.9648,14.906667 3.3738667,14.557867 2.8341333,14.139733 2.3477333,13.652267 1.8613333,13.1648 1.4432,12.626133 1.0933333,12.0352 0.74346667,11.444267 0.47466667,10.807467 0.2848,10.1248 0.09493333,9.4421333 0,8.7338667 0,8 0,7.2661333 0.09493333,6.5568 0.2848,5.8752 0.47466667,5.1936 0.74453333,4.5557333 1.0933333,3.9648 1.4421333,3.3738667 1.8602667,2.8341333 2.3477333,2.3477333 2.8352,1.8613333 3.3738667,1.4432 3.9648,1.0933333 4.5557333,0.74346667 5.1925333,0.47466667 5.8752,0.2848 6.5578667,0.09493333 7.2661333,0 8,0 Z"
   id="path4"
   style="stroke-width:1.06667" />
<polygon
   fill="#FFFFFF"
   points="10.745,4.915 8.167,7.5 10.745,10.085 10.085,10.745 7.5,8.167 4.915,10.745 4.255,10.085   6.833,7.5 4.255,4.915 4.915,4.255 7.5,6.833 10.085,4.255 "
   id="polygon6" />
</svg>
