<?xml version="1.0" encoding="UTF-8" standalone="no"?>
<svg
   xmlns:dc="http://purl.org/dc/elements/1.1/"
   xmlns:cc="http://creativecommons.org/ns#"
   xmlns:rdf="http://www.w3.org/1999/02/22-rdf-syntax-ns#"
   xmlns:svg="http://www.w3.org/2000/svg"
   xmlns="http://www.w3.org/2000/svg"
   xmlns:sodipodi="http://sodipodi.sourceforge.net/DTD/sodipodi-0.dtd"
   xmlns:inkscape="http://www.inkscape.org/namespaces/inkscape"
   width="16px"
   height="16px"
   viewBox="0 0 16 16"
   version="1.1"
   id="svg10"
   sodipodi:docname="Info (4).svg"
   inkscape:version="1.0.2 (e86c870879, 2021-01-15, custom)">
  <metadata
     id="metadata14">
    <rdf:RDF>
      <cc:Work
         rdf:about="">
        <dc:format>image/svg+xml</dc:format>
        <dc:type
           rdf:resource="http://purl.org/dc/dcmitype/StillImage" />
        <dc:title></dc:title>
      </cc:Work>
    </rdf:RDF>
  </metadata>
  <sodipodi:namedview
     pagecolor="#ffffff"
     bordercolor="#666666"
     borderopacity="1"
     objecttolerance="10"
     gridtolerance="10"
     guidetolerance="10"
     inkscape:pageopacity="0"
     inkscape:pageshadow="2"
     inkscape:window-width="1182"
     inkscape:window-height="778"
     id="namedview12"
     showgrid="false"
     inkscape:zoom="13.126178"
     inkscape:cx="3.3707183"
     inkscape:cy="6.1822409"
     inkscape:window-x="2056"
     inkscape:window-y="141"
     inkscape:window-maximized="0"
     inkscape:current-layer="svg10" />
  <defs
     id="defs2" />
  <g
     stroke="none"
     stroke-width="1"
     fill="none"
     fill-rule="evenodd"
     id="g8"
     transform="scale(1.0666667)">
    <g
       fill="#0078d7"
       id="g6">
      <path
         d="M 7.5,15 C 6.8072882,15 6.1419303,14.911459 5.5039062,14.734375 4.8658822,14.557291 4.2682319,14.305991 3.7109375,13.980469 3.1536431,13.654946 2.6471377,13.264325 2.1914063,12.808594 1.7356748,12.352862 1.3450537,11.846357 1.0195312,11.289063 0.69400879,10.731768 0.44270922,10.134118 0.265625,9.4960938 0.08854078,8.8580697 0,8.1927118 0,7.5 0,6.8072882 0.08854078,6.1419303 0.265625,5.5039062 0.44270922,4.8658822 0.69400879,4.2682319 1.0195312,3.7109375 1.3450537,3.1536431 1.7356748,2.6471377 2.1914063,2.1914063 2.6471377,1.7356748 3.1536431,1.3450537 3.7109375,1.0195312 4.2682319,0.69400879 4.8658822,0.44270922 5.5039062,0.265625 6.1419303,0.08854078 6.8072882,0 7.5,0 c 0.6927118,0 1.3580697,0.08854078 1.9960938,0.265625 0.6380242,0.17708422 1.2356742,0.42838379 1.7929692,0.7539062 0.557294,0.3255225 1.063799,0.7161436 1.519531,1.1718751 0.455731,0.4557314 0.846352,0.9622368 1.171875,1.5195312 0.325522,0.5572944 0.576822,1.1549447 0.753906,1.7929687 C 14.911459,6.1419303 15,6.8072882 15,7.5 c 0,0.6927118 -0.08854,1.3580697 -0.265625,1.9960938 -0.177084,0.6380242 -0.428384,1.2356742 -0.753906,1.7929692 -0.325523,0.557294 -0.716144,1.063799 -1.171875,1.519531 -0.455732,0.455731 -0.962237,0.846352 -1.519531,1.171875 -0.557295,0.325522 -1.154945,0.576822 -1.7929692,0.753906 C 8.8580697,14.911459 8.1927118,15 7.5,15 Z M 7,6 h 1 v 5 H 7 Z M 7,4 H 8 V 5 H 7 Z"
         id="path4" />
    </g>
  </g>
</svg>
