<svg xmlns="http://www.w3.org/2000/svg" viewBox="0 0 24 24">
    <defs>
        <style>.cls-1{fill:#185c37;}.cls-2{fill:#33c481;}.cls-3{fill:#21a366;}.cls-4{fill:none;}.cls-5{opacity:0.5;}.cls-6{opacity:0.1;}.cls-7{fill:#107c41;}.cls-8{fill:#fff;}</style>
    </defs>
    <title>Project_24x</title>
    <g id="Project">
        <g id="_24" data-name="24">
            <path class="cls-1" d="M8,16H23a1,1,0,0,1,1,1v5a1,1,0,0,1-1,1H9a1,1,0,0,1-1-1V16A0,0,0,0,1,8,16Z"/>
            <path class="cls-2" d="M4,1H16a1,1,0,0,1,1,1V8a0,0,0,0,1,0,0H3A0,0,0,0,1,3,8V2A1,1,0,0,1,4,1Z"/>
            <path class="cls-3" d="M3,8H19a1,1,0,0,1,1,1v7a0,0,0,0,1,0,0H4a1,1,0,0,1-1-1V8A0,0,0,0,1,3,8Z"/>
            <rect class="cls-4" width="24" height="24"/>
            <path class="cls-5" d="M13.6,20A1.5,1.5,0,0,0,15,18.65V7.17A1.17,1.17,0,0,0,13.83,6H3v9a1,1,0,0,0,1,1H8v4Z"/>
            <path class="cls-6" d="M13.6,20A1.5,1.5,0,0,0,15,18.65V7.17A1.17,1.17,0,0,0,13.83,6H3v9a1,1,0,0,0,1,1H8v4Z"/>
            <rect id="Back_Plate" data-name="Back Plate" class="cls-7" y="5" width="14" height="14" rx="1.17"/>
            <path class="cls-8" d="M7.4,8a3.32,3.32,0,0,1,2.2.64,2.32,2.32,0,0,1,.76,1.86A3.42,3.42,0,0,1,10,12.11a2.54,2.54,0,0,1-1.07,1,3.7,3.7,0,0,1-1.61.34H5.78V16H4.22V8ZM5.78,12H7.12a1.78,1.78,0,0,0,1.19-.35,1.46,1.46,0,0,0,.4-1.1c0-.88-.51-1.32-1.54-1.32H5.78Z"/>
        </g>
    </g>
</svg>