<?xml version="1.0" encoding="UTF-8" standalone="no"?>
<svg
   xmlns:dc="http://purl.org/dc/elements/1.1/"
   xmlns:cc="http://creativecommons.org/ns#"
   xmlns:rdf="http://www.w3.org/1999/02/22-rdf-syntax-ns#"
   xmlns:svg="http://www.w3.org/2000/svg"
   xmlns="http://www.w3.org/2000/svg"
   xmlns:sodipodi="http://sodipodi.sourceforge.net/DTD/sodipodi-0.dtd"
   xmlns:inkscape="http://www.inkscape.org/namespaces/inkscape"
   viewBox="0 0 100 100"
   version="1.1"
   id="svg8"
   sodipodi:docname="certification-exam.svg"
   width="100"
   height="100"
   inkscape:version="1.0.2 (e86c870879, 2021-01-15, custom)">
  <metadata
     id="metadata14">
    <rdf:RDF>
      <cc:Work
         rdf:about="">
        <dc:format>image/svg+xml</dc:format>
        <dc:type
           rdf:resource="http://purl.org/dc/dcmitype/StillImage" />
        <dc:title></dc:title>
      </cc:Work>
    </rdf:RDF>
  </metadata>
  <defs
     id="defs12" />
  <sodipodi:namedview
     pagecolor="#ffffff"
     bordercolor="#666666"
     borderopacity="1"
     objecttolerance="10"
     gridtolerance="10"
     guidetolerance="10"
     inkscape:pageopacity="0"
     inkscape:pageshadow="2"
     inkscape:window-width="1350"
     inkscape:window-height="732"
     id="namedview10"
     showgrid="false"
     inkscape:zoom="2.5883901"
     inkscape:cx="78.819309"
     inkscape:cy="71.764247"
     inkscape:window-x="2195"
     inkscape:window-y="118"
     inkscape:window-maximized="0"
     inkscape:current-layer="svg8" />
  <path
     d="m 80.756192,10.789149 -0.05805,-0.02052 h -0.06147 L 53.755349,2.6087507 a 11.819057,11.839692 0 0 0 -3.755332,-0.608742 11.819057,11.839692 0 0 0 -3.755333,0.608742 L 19.363329,10.751531 h -0.05804 l -0.06145,0.02052 a 7.7462272,7.7597513 0 0 0 -5.243806,7.366461 v 45.744571 c 0,5.235866 1.976673,10.324677 5.871976,15.122795 2.92916,3.61141 6.964436,7.06893 11.993168,10.280215 A 88.113761,88.267598 0 0 0 48.83928,97.596454 L 50.017089,98 51.194898,97.586188 A 89.82756,89.984389 0 0 0 68.1451,89.173242 c 5.021904,-3.231806 9.053771,-6.689325 11.982927,-10.283639 3.895308,-4.787859 5.871971,-9.83221 5.871971,-15.006518 V 18.138512 a 7.7462272,7.7597513 0 0 0 -5.243806,-7.349363 z"
     fill="#002050"
     id="path2"
     style="stroke-width:0.341692" />
  <path
     d="m 17.731467,32.166939 h -0.122902 v 31.699046 c 0,19.219831 32.394866,30.293471 32.394866,30.293471 0,0 32.388038,-11.357494 32.388038,-30.293471 V 32.201138 H 82.268565 C 59.651222,29.40366 40.348812,29.40366 17.731467,32.166939 Z"
     fill="#0064b5"
     id="path4"
     style="stroke-width:0.341692" />
  <path
     d="m 35.726338,59.902321 -5.848077,0.372769 -0.617922,-9.770652 5.622756,-0.359089 0.116074,1.792027 -3.413938,0.218873 0.136558,2.171636 3.188619,-0.201774 0.112659,1.785188 -3.188619,0.201774 0.143386,2.236614 3.649501,-0.232553 z m 10.576384,-0.372769 -2.60825,0.07866 -1.775248,-3.136047 a 2.731151,2.7359193 0 0 1 -0.218492,-0.649781 h -0.02731 a 4.9399695,4.9485941 0 0 1 -0.204835,0.683979 l -1.594311,3.207866 -2.625318,0.07866 2.970127,-4.986213 -2.994025,-4.808378 2.679942,-0.07866 1.481649,2.893235 a 5.0970106,5.1059094 0 0 1 0.317497,0.817356 h 0.02731 c 0.04779,-0.194935 0.143385,-0.482206 0.279943,-0.861815 l 1.467993,-2.954793 2.451209,-0.07182 -2.785775,4.938334 z m 10.525172,0.05814 -2.389757,-0.0171 -0.682788,-2.185316 -3.475389,-0.02394 -0.703271,2.171635 h -2.389758 l 3.632431,-9.763812 2.60825,0.02052 z m -3.57098,-3.898682 -1.024182,-3.296783 a 4.4005672,4.4082501 0 0 1 -0.15704,-0.882334 h -0.05462 a 3.6904678,3.696911 0 0 1 -0.17411,0.851555 l -1.089051,3.310462 z m 16.629299,4.521106 -2.171269,-0.112856 0.303843,-5.851448 c 0.0341,-0.629262 0.09559,-1.326921 0.191179,-2.089559 h -0.05464 a 10.542243,10.560648 0 0 1 -0.375538,1.279043 l -2.63215,6.525167 -1.795732,-0.09234 -1.986907,-6.699582 a 13.570407,13.594099 0 0 1 -0.235563,-1.36796 h -0.06145 c 0,0.964412 0,1.812546 -0.04097,2.537565 l -0.283357,5.406861 -1.980085,-0.102598 0.508677,-9.777491 3.219348,0.170995 1.706962,5.895906 a 8.258318,8.2727361 0 0 1 0.27312,1.415839 h 0.04092 c 0.150216,-0.533505 0.307262,-0.998612 0.460889,-1.3919 l 2.297573,-5.677032 3.137412,0.164156 z M 38.447248,22.546762 H 37.10557 V 18.93193 c 0,-0.393289 0,-0.824197 0.05121,-1.296143 h -0.03415 a 6.029016,6.0395419 0 0 1 -0.191179,0.800257 l -1.413371,4.103879 h -1.10953 l -1.44068,-4.06626 a 8.0022726,8.0162437 0 0 1 -0.187767,-0.844715 h -0.03756 c 0.03415,0.595061 0.05462,1.118307 0.05462,1.569733 v 3.341242 h -1.232432 v -6.036122 h 1.990327 l 1.232431,3.580634 a 4.9911785,4.9998926 0 0 1 0.215079,0.865234 h 0.02389 a 8.9206224,8.9361968 0 0 1 0.24239,-0.872074 l 1.232431,-3.573794 h 1.939118 z m 1.91522,-4.999892 a 0.77155017,0.77289721 0 0 1 -0.549645,-0.198354 0.64523444,0.64636094 0 0 1 -0.215078,-0.492465 0.62133686,0.62242165 0 0 1 0.215078,-0.489046 0.90469382,0.90627331 0 0 1 1.102703,0 0.61792293,0.61900175 0 0 1 0.211664,0.489046 0.6418205,0.64294105 0 0 1 -0.211664,0.499304 0.79544775,0.79683651 0 0 1 -0.553058,0.191515 z m 0.655476,4.999892 H 39.689922 V 18.23085 h 1.328022 z m 4.386911,-0.153895 a 2.6321468,2.6367422 0 0 1 -1.300711,0.259912 2.2054044,2.2092548 0 0 1 -1.614793,-0.601902 2.0790887,2.0827186 0 0 1 -0.614509,-1.556054 2.2805111,2.2844926 0 0 1 0.658891,-1.733889 2.4341384,2.4383881 0 0 1 1.761592,-0.636101 2.2805111,2.2844926 0 0 1 1.102702,0.201774 v 1.131986 a 1.5055471,1.5081756 0 0 0 -0.928591,-0.31121 1.2153623,1.2174841 0 0 0 -0.908108,0.34199 1.2460877,1.2482632 0 0 0 -0.341393,0.923372 1.2153623,1.2174841 0 0 0 0.32091,0.899434 1.167567,1.1696055 0 0 0 0.877382,0.34199 1.7786621,1.7817674 0 0 0 0.972972,-0.311211 z m 3.68364,-2.961633 a 1.1778088,1.1798652 0 0 0 -0.559886,-0.129955 0.8091035,0.81051611 0 0 0 -0.682788,0.31805 1.4065428,1.4089984 0 0 0 -0.242389,0.868655 v 2.051939 H 46.271995 V 18.23085 h 1.338264 v 0.800256 a 1.1470834,1.1490861 0 0 1 1.136841,-0.875494 0.84324288,0.84471509 0 0 1 0.341395,0.0513 z m 2.638975,3.221545 a 2.3214784,2.3255314 0 0 1 -1.70697,-0.605322 2.1951626,2.1989952 0 0 1 -0.614509,-1.641552 2.1883348,2.1921554 0 0 1 0.638408,-1.67575 2.4204826,2.4247085 0 0 1 1.730866,-0.605322 2.2907529,2.2947523 0 0 1 1.683072,0.605322 2.1507815,2.1545365 0 0 1 0.638407,1.600513 2.2805111,2.2844926 0 0 1 -0.631579,1.709949 2.341962,2.3460508 0 0 1 -1.737695,0.612162 z m 0.03072,-3.505396 a 0.88421015,0.88575388 0 0 0 -0.730583,0.321471 1.4338543,1.4363576 0 0 0 -0.259461,0.919952 c 0,0.831036 0.341395,1.244844 1.000285,1.244844 0.658891,0 0.955903,-0.427488 0.955903,-1.279043 0,-0.851554 -0.334566,-1.207224 -0.966144,-1.207224 z m 2.901847,3.286522 v -1.077267 a 2.9120898,2.917174 0 0 0 0.655476,0.294111 2.1234699,2.1271772 0 0 0 0.614509,0.09576 1.3314361,1.3337606 0 0 0 0.559887,-0.09576 0.31408238,0.31463073 0 0 0 0.201421,-0.294111 0.2731151,0.27359193 0 0 0 -0.09218,-0.212034 0.77155017,0.77289721 0 0 0 -0.238976,-0.147056 2.287339,2.2913325 0 0 0 -0.317496,-0.116276 3.4139388,3.4198991 0 0 1 -0.341394,-0.112857 3.0998564,3.1052684 0 0 1 -0.450639,-0.208614 1.283641,1.2858821 0 0 1 -0.341395,-0.259913 1.003698,1.0054503 0 0 1 -0.201423,-0.341989 1.389473,1.3918989 0 0 1 -0.06828,-0.458267 1.167567,1.1696055 0 0 1 0.157042,-0.622421 1.2870549,1.289302 0 0 1 0.419914,-0.427487 1.9049778,1.9083037 0 0 1 0.604267,-0.246233 3.1715492,3.1770863 0 0 1 0.703271,-0.07866 4.0967266,4.103879 0 0 1 1.160739,0.174415 v 1.02597 a 2.0210518,2.0245803 0 0 0 -0.539402,-0.222294 2.1917487,2.1955752 0 0 0 -0.566713,-0.07523 1.4270265,1.4295179 0 0 0 -0.245805,0.02393 0.85007076,0.85155488 0 0 0 -0.204835,0.0684 0.34139388,0.34198991 0 0 0 -0.136557,0.112857 0.2628733,0.26333224 0 0 0 -0.05121,0.157315 0.28335692,0.28385163 0 0 0 0.0751,0.201774 0.63840655,0.63952114 0 0 0 0.198009,0.147055 1.7752482,1.7783476 0 0 0 0.269701,0.109438 l 0.297012,0.09917 a 4.0079642,4.0149616 0 0 1 0.481366,0.201775 1.6762439,1.6791704 0 0 1 0.368706,0.256492 1.0241817,1.0259698 0 0 1 0.235561,0.341989 1.2426737,1.2448433 0 0 1 0.08193,0.475366 1.2119483,1.2140642 0 0 1 -0.167284,0.653202 1.3655756,1.3679597 0 0 1 -0.440397,0.444586 2.0176379,2.0211605 0 0 1 -0.634993,0.246232 3.3900412,3.3959598 0 0 1 -0.747652,0.07866 3.8270254,3.8337069 0 0 1 -1.297298,-0.212034 z m 6.128021,0.218874 a 2.3078226,2.3118518 0 0 1 -1.70697,-0.605322 2.181507,2.1853156 0 0 1 -0.617923,-1.641552 2.1883348,2.1921554 0 0 1 0.638407,-1.67575 2.4204826,2.4247085 0 0 1 1.730867,-0.605322 2.2839251,2.2879125 0 0 1 1.683074,0.605322 2.1507815,2.1545365 0 0 1 0.611098,1.600513 2.2770971,2.2810727 0 0 1 -0.628164,1.709949 2.3556178,2.3597304 0 0 1 -1.710389,0.612162 z m 0.03414,-3.505396 a 0.89103806,0.89259371 0 0 0 -0.733996,0.321471 1.4338543,1.4363576 0 0 0 -0.259459,0.919952 c 0,0.831036 0.341394,1.244844 1.000283,1.244844 0.658891,0 0.955904,-0.427488 0.955904,-1.279043 0,-0.851554 -0.320911,-1.207224 -0.962732,-1.207224 z m 5.861733,-1.969862 a 1.3211943,1.323501 0 0 0 -0.491604,-0.102597 c -0.426747,0 -0.641821,0.232553 -0.641821,0.683979 v 0.458268 h 0.986627 v 0.98835 h -0.986627 v 3.334402 H 64.225893 V 19.205521 H 63.502139 V 18.23085 h 0.723754 v -0.536925 a 1.5567561,1.559474 0 0 1 0.477956,-1.186705 1.840113,1.8433256 0 0 1 1.307537,-0.451426 2.2224742,2.2263544 0 0 1 0.682783,0.0855 z m 3.260315,5.321363 a 1.9800845,1.9835415 0 0 1 -0.887628,0.153895 c -0.935418,0 -1.406545,-0.485626 -1.406545,-1.463716 V 19.205521 H 66.967289 V 18.23085 h 0.682784 v -0.930213 l 1.328022,-0.379609 v 1.309822 h 0.966151 v 0.974671 h -0.966151 v 1.747569 c 0,0.448007 0.177531,0.683979 0.532575,0.683979 a 0.89103806,0.89259371 0 0 0 0.433576,-0.123116 z"
     fill="#ffffff"
     id="path6"
     style="stroke-width:0.341692" />
</svg>
