<?xml version="1.0" encoding="UTF-8" standalone="no"?>
<svg
   xmlns:dc="http://purl.org/dc/elements/1.1/"
   xmlns:cc="http://creativecommons.org/ns#"
   xmlns:rdf="http://www.w3.org/1999/02/22-rdf-syntax-ns#"
   xmlns:svg="http://www.w3.org/2000/svg"
   xmlns="http://www.w3.org/2000/svg"
   xmlns:sodipodi="http://sodipodi.sourceforge.net/DTD/sodipodi-0.dtd"
   xmlns:inkscape="http://www.inkscape.org/namespaces/inkscape"
   version="1.1"
   id="Layer_1"
   x="0px"
   y="0px"
   height="16"
   width="16"
   viewBox="0 0 16 16"
   xml:space="preserve"
   sodipodi:docname="Tag.svg"
   inkscape:version="1.0.2 (e86c870879, 2021-01-15, custom)"><metadata
   id="metadata13"><rdf:RDF><cc:Work
       rdf:about=""><dc:format>image/svg+xml</dc:format><dc:type
         rdf:resource="http://purl.org/dc/dcmitype/StillImage" /><dc:title></dc:title></cc:Work></rdf:RDF></metadata><defs
   id="defs11" /><sodipodi:namedview
   pagecolor="#ffffff"
   bordercolor="#666666"
   borderopacity="1"
   objecttolerance="10"
   gridtolerance="10"
   guidetolerance="10"
   inkscape:pageopacity="0"
   inkscape:pageshadow="2"
   inkscape:window-width="1255"
   inkscape:window-height="933"
   id="namedview9"
   showgrid="false"
   inkscape:zoom="6.7511494"
   inkscape:cx="15.205871"
   inkscape:cy="15.769866"
   inkscape:window-x="2044"
   inkscape:window-y="35"
   inkscape:window-maximized="0"
   inkscape:current-layer="Layer_1" />
<path
   fill="#804998"
   d="M 13.536,0 9.1520002,0.16194331 0,9.4251011 6.4960002,16 15.648,6.736842 16,2.4939271 Z m 0.352001,3.4331983 c -0.352001,0.3562753 -0.928,0.3562753 -1.280001,0 -0.352,-0.3562753 -0.352,-0.9392712 0,-1.2955465 0.352001,-0.3562753 0.928,-0.3562753 1.280001,0 0.351999,0.3562753 0.351999,0.9392712 0,1.2955465 z"
   id="path2"
   style="stroke-width:0.321938" />
<polygon
   opacity="0.1"
   fill="#ffffff"
   points="24.9,45.2 24.9,4.5 0,29.4 20.3,49.7 "
   id="polygon4"
   transform="matrix(0.32000001,0,0,0.32388664,0,-0.09716599)" />
<path
   opacity="0.3"
   fill="#1e1e1e"
   d="m 14.432,1.5870445 c -0.64,-0.6477732 -1.696,-0.6477732 -2.336,0 -0.639999,0.6477733 -0.639999,1.7165992 0,2.3643725 0.64,0.6477732 1.696,0.6477732 2.336,0 0.64,-0.6477733 0.64,-1.7165992 0,-2.3643725 z m -0.543999,1.8461538 c -0.352001,0.3562753 -0.928,0.3562753 -1.280001,0 -0.352,-0.3562753 -0.352,-0.9392712 0,-1.2955465 0.352001,-0.3562753 0.928,-0.3562753 1.280001,0 0.351999,0.3562753 0.351999,0.9392712 0,1.2955465 z"
   id="path6"
   style="stroke-width:0.321938" />
</svg>
