<?xml version="1.0" encoding="UTF-8" standalone="no"?>
<svg
   xmlns:dc="http://purl.org/dc/elements/1.1/"
   xmlns:cc="http://creativecommons.org/ns#"
   xmlns:rdf="http://www.w3.org/1999/02/22-rdf-syntax-ns#"
   xmlns:svg="http://www.w3.org/2000/svg"
   xmlns="http://www.w3.org/2000/svg"
   xmlns:sodipodi="http://sodipodi.sourceforge.net/DTD/sodipodi-0.dtd"
   xmlns:inkscape="http://www.inkscape.org/namespaces/inkscape"
   version="1.1"
   id="Layer_1"
   x="0px"
   y="0px"
   width="16"
   height="16"
   viewBox="0 0 16 16"
   enable-background="new 0 0 50 50"
   xml:space="preserve"
   sodipodi:docname="search.svg"
   inkscape:version="1.0.2 (e86c870879, 2021-01-15, custom)"><metadata
   id="metadata17"><rdf:RDF><cc:Work
       rdf:about=""><dc:format>image/svg+xml</dc:format><dc:type
         rdf:resource="http://purl.org/dc/dcmitype/StillImage" /><dc:title></dc:title></cc:Work></rdf:RDF></metadata><defs
   id="defs15" /><sodipodi:namedview
   pagecolor="#ffffff"
   bordercolor="#666666"
   borderopacity="1"
   objecttolerance="10"
   gridtolerance="10"
   guidetolerance="10"
   inkscape:pageopacity="0"
   inkscape:pageshadow="2"
   inkscape:window-width="1430"
   inkscape:window-height="904"
   id="namedview13"
   showgrid="false"
   inkscape:zoom="20.283399"
   inkscape:cx="14.105543"
   inkscape:cy="8.2418878"
   inkscape:window-x="2023"
   inkscape:window-y="41"
   inkscape:window-maximized="0"
   inkscape:current-layer="Layer_1" />
<path
   fill="#3e3e3e"
   d="M 15.143847,2.8546772 C 14.325755,1.5031208 13.030442,0.55102655 11.496196,0.17372107 11.029588,0.05876332 10.551724,0 10.074825,0 7.3504233,0 4.9881172,1.8521685 4.3304918,4.5032613 3.9693607,5.9752343 4.2053983,7.5348707 4.9652852,8.8533526 L 0.44133717,13.406707 c -0.59202363,0.597588 -0.58784312,1.561242 0.010612,2.152729 C 0.74844335,15.852931 1.1369086,16 1.5247307,16 c 0.3920026,0 0.78497,-0.150601 1.083072,-0.45084 l 4.5027239,-4.532482 c 0.4900837,0.287394 1.0097525,0.50286 1.5522533,0.636121 0.4653221,0.114315 0.9422213,0.172436 1.4175121,0.172436 2.729226,0 5.091854,-1.8495993 5.744656,-4.4981232 0.379782,-1.5313785 0.137634,-3.1199149 -0.681101,-4.4724346 z"
   id="path2"
   style="stroke-width:0.321345" />
<path
   fill="#ffffff"
   d="m 14.104188,6.9035663 c -0.457604,1.8544163 -2.111476,3.1500997 -4.023896,3.1500997 -0.3325106,0 -0.6666293,-0.04046 -0.9927086,-0.1204169 C 8.5865661,9.8096213 8.1324991,9.5957613 7.7305276,9.3180002 7.3070105,9.0254681 6.9465224,8.6597227 6.661605,8.241636 6.0216664,7.3033496 5.7627968,6.1107432 6.0541457,4.9252012 6.514001,3.0685371 8.1688373,1.7722118 10.077077,1.7722118 c 0.332832,0 0.667594,0.040461 0.994959,0.121059 1.07439,0.2642743 1.981559,0.9309009 2.554931,1.8778573 0.573372,0.9463142 0.742843,2.058964 0.477221,3.1324382"
   id="path4"
   style="stroke-width:0.321345" />
<path
   opacity="0.1"
   fill="#59b4d9"
   d="m 14.104188,6.9035663 c -0.457604,1.8544163 -2.111476,3.1500997 -4.023896,3.1500997 -0.3325106,0 -0.6666293,-0.04046 -0.9927086,-0.1204169 C 8.5865661,9.8096213 8.1324991,9.5957613 7.7305276,9.3180002 7.3070105,9.0254681 6.9465224,8.6597227 6.661605,8.241636 6.0216664,7.3033496 5.7627968,6.1107432 6.0541457,4.9252012 6.514001,3.0685371 8.1688373,1.7722118 10.077077,1.7722118 c 0.332832,0 0.667594,0.040461 0.994959,0.121059 1.07439,0.2642743 1.981559,0.9309009 2.554931,1.8778573 0.573372,0.9463142 0.742843,2.058964 0.477221,3.1324382"
   id="path6"
   style="stroke-width:0.321345" />
<path
   opacity="0.3"
   fill="#59b4d9"
   d="M 12.319113,2.4330584 C 11.940294,2.1886929 11.522245,2.0043751 11.072036,1.8932708 c -0.327365,-0.08092 -0.662127,-0.12138 -0.995281,-0.12138 -1.9079177,0 -3.562754,1.2966463 -4.0226093,3.1533104 -0.2913489,1.185542 -0.032158,2.3781484 0.6074593,3.316756 0.1122304,0.16473 0.2398966,0.3188632 0.374959,0.4662532 0.8791921,-2.7137094 2.7948274,-4.9602023 5.282549,-6.275152"
   id="path8"
   style="stroke-width:0.321345" />
<path
   opacity="0.5"
   fill="#1e1e1e"
   d="M 6.7252773,10.775202 C 6.1255358,10.360648 5.6116555,9.843338 5.1990719,9.2383648 5.1138539,9.1134525 5.0402127,8.9830814 4.9652852,8.8533526 l -0.4254466,0.4280411 -0.046629,0.046882 c 0.055955,0.091838 0.1138384,0.18207 0.1746164,0.2710177 0.4572829,0.6708006 1.0261529,1.2439836 1.6918177,1.7038146 0.056597,0.03917 0.1990563,0.09408 0.3228635,0.1445 l 0.4280195,-0.43093 C 6.980288,10.940575 6.8510139,10.861902 6.7252773,10.775202 Z"
   id="path10"
   style="stroke-width:0.321345" />
</svg>
