<?xml version="1.0" encoding="UTF-8" standalone="no"?>
<svg
   xmlns:dc="http://purl.org/dc/elements/1.1/"
   xmlns:cc="http://creativecommons.org/ns#"
   xmlns:rdf="http://www.w3.org/1999/02/22-rdf-syntax-ns#"
   xmlns:svg="http://www.w3.org/2000/svg"
   xmlns="http://www.w3.org/2000/svg"
   xmlns:sodipodi="http://sodipodi.sourceforge.net/DTD/sodipodi-0.dtd"
   xmlns:inkscape="http://www.inkscape.org/namespaces/inkscape"
   version="1.1"
   id="Layer_1"
   x="0px"
   y="0px"
   width="16"
   height="16"
   viewBox="0 0 16 16"
   enable-background="new 0 0 9 9"
   xml:space="preserve"
   sodipodi:docname="warning.svg"
   inkscape:version="1.0.2 (e86c870879, 2021-01-15, custom)"><metadata
   id="metadata13"><rdf:RDF><cc:Work
       rdf:about=""><dc:format>image/svg+xml</dc:format><dc:type
         rdf:resource="http://purl.org/dc/dcmitype/StillImage" /><dc:title></dc:title></cc:Work></rdf:RDF></metadata><defs
   id="defs11" /><sodipodi:namedview
   pagecolor="#ffffff"
   bordercolor="#666666"
   borderopacity="1"
   objecttolerance="10"
   gridtolerance="10"
   guidetolerance="10"
   inkscape:pageopacity="0"
   inkscape:pageshadow="2"
   inkscape:window-width="1223"
   inkscape:window-height="881"
   id="namedview9"
   showgrid="false"
   inkscape:zoom="25.292839"
   inkscape:cx="7.877678"
   inkscape:cy="11.26962"
   inkscape:window-x="2085"
   inkscape:window-y="39"
   inkscape:window-maximized="0"
   inkscape:current-layer="Layer_1" />
<path
   fill="#ff8c00"
   d="M 14.696708,15.25 H 8.0012998 1.3023357 c -1.06671397,0 -1.6285167,-1.1292 -1.10227111,-2.046337 L 3.5797702,7.1480192 6.9256965,1.4458202 C 7.4626092,0.52687077 8.5311012,0.51418307 9.053791,1.4313202 l 3.39215,5.9342024 3.345927,5.8526394 C 16.325225,14.131675 15.788268,15.25 14.696708,15.25 Z"
   id="path2"
   style="stroke-width:1.79509" />
<ellipse
   fill="#ffffff"
   cx="7.9995222"
   cy="11.947583"
   id="circle4"
   style="stroke-width:1.79509"
   rx="1.0933819"
   ry="1.1147022" />
<polygon
   fill="#ffffff"
   points="4.439,5.278 4.623,5.278 4.918,5.278 5.083,2.428 4.623,2.428 4.439,2.428 3.98,2.428 4.144,5.278 "
   id="polygon6"
   transform="matrix(1.7778568,0,0,1.8125234,-8.3321571e-4,0.74981117)" />
</svg>
